<?xml version="1.0" standalone="no"?>
<!DOCTYPE svg PUBLIC "-//W3C//DTD SVG 1.1//EN" "http://www.w3.org/Graphics/SVG/1.1/DTD/svg11.dtd" >
<svg xmlns="http://www.w3.org/2000/svg" xmlns:xlink="http://www.w3.org/1999/xlink" version="1.1">
<metadata></metadata>
<defs>
<font id="sofia_probold_italic" horiz-adv-x="1349" >
<font-face units-per-em="2048" ascent="1536" descent="-512" />
<missing-glyph horiz-adv-x="499" />
<glyph unicode="&#xfb01;" horiz-adv-x="1423" d="M174 731l41 225h180l13 66q41 221 174 338t340 117h104l-51 -273h-105q-140 0 -176 -182l-12 -66h778l-168 -956h-282l127 731h-496l-127 -731h-287l127 731h-180zM1204 1311q12 70 73.5 118t135.5 48q72 0 113.5 -47t29.5 -119q-12 -69 -72 -118.5t-132 -49.5 q-73 0 -116.5 48.5t-31.5 119.5z" />
<glyph unicode="&#xfb02;" horiz-adv-x="1388" d="M174 731l41 225h180l13 66q41 221 174 338t340 117h598l-263 -1477h-284l211 1204h-314q-140 0 -176 -182l-12 -66h192l-40 -225h-193l-127 -731h-287l127 731h-180z" />
<glyph unicode="&#xfb03;" horiz-adv-x="2230" d="M174 731l41 225h180l13 66q41 221 174 338t340 117h104l-51 -273h-105q-140 0 -176 -182l-12 -66h520l12 66q41 221 174 338t341 117h104l-51 -273h-105q-140 0 -176 -182l-12 -66h778l-168 -956h-282l127 731h-496l-127 -731h-287l127 731h-520l-127 -731h-287l127 731 h-180zM2011 1311q12 70 73.5 118t135.5 48q72 0 113.5 -47t29.5 -119q-12 -69 -72 -118.5t-132 -49.5q-73 0 -116.5 48.5t-31.5 119.5z" />
<glyph unicode="&#xfb04;" horiz-adv-x="2195" d="M174 731l41 225h180l13 66q41 221 174 338t340 117h104l-51 -273h-105q-140 0 -176 -182l-12 -66h520l12 66q41 221 174 338t341 117h598l-263 -1477h-284l211 1204h-314q-140 0 -176 -182l-12 -66h192l-41 -225h-192l-127 -731h-287l127 731h-520l-127 -731h-287 l127 731h-180z" />
<glyph horiz-adv-x="0" />
<glyph horiz-adv-x="682" />
<glyph unicode=" "  horiz-adv-x="499" />
<glyph unicode="&#x09;" horiz-adv-x="499" />
<glyph unicode="&#xa0;" horiz-adv-x="499" />
<glyph unicode="!" horiz-adv-x="579" d="M137 152q12 72 73 121t136 49q73 0 115.5 -48.5t30.5 -121.5q-12 -74 -73 -123t-134 -49t-116.5 49t-31.5 123zM250 426l131 985h315l-213 -985h-233z" />
<glyph unicode="&#x22;" horiz-adv-x="747" d="M293 803l84 608h201l-129 -608h-156zM582 803l84 608h200l-129 -608h-155z" />
<glyph unicode="#" horiz-adv-x="1480" d="M129 334l86 188h231l164 344h-229l90 189h231l168 356h228l-168 -356h207l170 356h225l-170 -356h235l-90 -189h-235l-166 -344h235l-88 -188h-233l-166 -334h-223l162 334h-209l-164 -334h-221l163 334h-233zM672 522h207l165 344h-208z" />
<glyph unicode="$" horiz-adv-x="1177" d="M152 414h301q-8 -73 37.5 -121.5t142.5 -48.5q93 0 157.5 40.5t77.5 108.5q9 56 -18.5 94.5t-122.5 65.5l-164 47q-343 115 -291 406q19 112 91.5 203.5t177 145.5t225.5 68l43 219h149l-43 -221q173 -26 262 -138t56 -288h-299q12 74 -27 117t-127 43q-79 0 -138 -39.5 t-69 -101.5q-17 -103 125 -144l160 -53q372 -112 309 -426q-18 -93 -67 -168t-119 -124t-150 -78.5t-167 -38.5l-43 -236h-150l43 236q-200 20 -296.5 137t-65.5 295z" />
<glyph unicode="%" horiz-adv-x="1417" d="M264 1081q20 116 112.5 195.5t207.5 79.5q114 0 180.5 -80t46.5 -195q-22 -116 -115.5 -194t-208.5 -78q-116 0 -179.5 77.5t-43.5 194.5zM303 0l895 1341h141l-895 -1341h-141zM430 1081q-10 -47 15 -76.5t73 -29.5q45 0 81 29.5t46 76.5q8 44 -19 76.5t-71 32.5 q-46 0 -81.5 -32t-43.5 -77zM842 252q20 116 112 195t207 79t181.5 -79.5t46.5 -194.5q-22 -116 -115.5 -194t-208.5 -78q-116 0 -179.5 77.5t-43.5 194.5zM1008 252q-10 -47 15 -77t73 -30q45 0 81 30t46 77q7 44 -19.5 76t-70.5 32q-46 0 -81.5 -31.5t-43.5 -76.5z" />
<glyph unicode="&#x26;" horiz-adv-x="1421" d="M172 391q25 136 101 228t198 133q-74 26 -110.5 100t-18.5 180q25 154 163.5 271t317.5 124q129 6 224.5 -43t148.5 -139l-270 -147q-39 53 -105 53q-71 0 -116 -43.5t-54 -95.5l-1 -6q0 -6 -0.5 -13t0 -18t2 -22t5.5 -23.5t10.5 -23t17 -21t24.5 -17.5t33.5 -11.5 t43.5 -4.5h234l31 160h264l-31 -160h164l-41 -229h-164l-37 -209q-7 -42 -9 -70t3 -50t15.5 -34.5t32 -20t48 -10t68.5 -2.5l-45 -247q-71 0 -119.5 3.5t-95.5 14t-75.5 30t-48.5 51.5t-26 77q-54 -81 -164 -128.5t-210 -47.5q-207 0 -323.5 116t-84.5 295zM487 416 q0 -76 46.5 -117t138.5 -41q34 0 74 12t85 38.5t80 79t47 122.5l21 113h-242q-56 0 -101.5 -16t-72 -39.5t-45 -53t-25 -54t-6.5 -44.5z" />
<glyph unicode="'" horiz-adv-x="458" d="M293 803l84 608h201l-129 -608h-156z" />
<glyph unicode="(" horiz-adv-x="794" d="M160.5 -24.5q-43.5 209.5 1.5 491.5q48 274 172 494t294 343t353 123l-41 -223q-101 0 -214.5 -104.5t-203 -276.5t-121.5 -356q-29 -194 -2.5 -355t104 -264.5t179.5 -103.5l-39 -221q-184 0 -311.5 121.5t-171 331z" />
<glyph unicode=")" horiz-adv-x="794" d="M-16 -477l34 221q101 0 214.5 101t203 270t121.5 352q26 141 12.5 274t-52 236t-102.5 165t-139 62l41 223q109 0 201 -46.5t155.5 -131t103 -204t43.5 -265t-23 -313.5q-36 -204 -117 -381t-189 -300t-240 -193t-267 -70z" />
<glyph unicode="*" horiz-adv-x="974" d="M281 1087l98 191l229 -98l33 268h205l-68 -266l271 96l24 -191l-266 -69l131 -213l-180 -113l-107 221l-194 -225l-135 119l206 207z" />
<glyph unicode="+" horiz-adv-x="1042" d="M174 430l37 209h315l58 315h209l-58 -315h318l-37 -209h-318l-55 -317h-209l55 317h-315z" />
<glyph unicode="," horiz-adv-x="579" d="M-33 -207q86 99 156 243t94 288h289q-21 -114 -66 -216t-101.5 -176t-104.5 -122.5t-97 -85.5z" />
<glyph unicode="-" horiz-adv-x="972" d="M193 391l38 225h723l-39 -225h-722z" />
<glyph unicode="." horiz-adv-x="571" d="M133 152q12 72 73 121t136 49q73 0 115 -48.5t30 -121.5q-12 -74 -72.5 -123t-133.5 -49t-116.5 49t-31.5 123z" />
<glyph unicode="/" horiz-adv-x="1024" d="M59 0l926 1411h227l-925 -1411h-228z" />
<glyph unicode="0" horiz-adv-x="1236" d="M212 452.5q3 98.5 24 219.5q119 696 626 696q115 0 195.5 -36t125 -97t62.5 -151.5t14.5 -189.5t-24.5 -222q-21 -121 -52 -220t-82 -188.5t-117 -150.5t-160 -97t-208 -36q-115 0 -196.5 36t-126.5 97t-64.5 151t-16.5 188.5zM524 672q-72 -414 140 -414q59 0 107 32.5 t82.5 91t58 130t38.5 160.5q72 418 -137 418q-78 0 -138 -59t-95 -148.5t-56 -210.5z" />
<glyph unicode="1" horiz-adv-x="772" d="M231 862l45 252l562 246l-242 -1360h-287l168 961z" />
<glyph unicode="2" horiz-adv-x="1122" d="M104 0l27 156l666 653q84 81 98 152q11 56 -27.5 94.5t-115.5 38.5q-76 0 -136.5 -52.5t-87.5 -134.5l-256 45q67 193 210.5 304.5t332.5 111.5q89 0 164 -30t125 -83t72 -129.5t6 -164.5q-31 -177 -201 -340l-371 -351h414l-47 -270h-873z" />
<glyph unicode="3" horiz-adv-x="1130" d="M113 264l274 125q12 -48 64.5 -86t109.5 -43q74 -4 137.5 40.5t81.5 102.5q16 70 2 108q-28 75 -151 71h-142l41 245h142q39 0 69.5 14.5t46 34t26 42.5t13 36.5t2.5 18.5q11 39 -16.5 84t-93.5 45q-100 0 -156 -74l-205 141q76 98 198.5 152t254.5 47q112 -5 195 -59 t118.5 -139t16.5 -179q-17 -83 -75 -151.5t-144 -110.5q67 -27 112 -87t56.5 -131t-5.5 -146q-30 -113 -120.5 -204t-216.5 -138t-256 -39q-138 7 -240 84t-139 196z" />
<glyph unicode="4" horiz-adv-x="1232" d="M90 301l811 1040h303l-141 -798h170l-43 -242h-170l-51 -301h-289l51 301h-641zM524 543h250l72 418z" />
<glyph unicode="5" horiz-adv-x="1212" d="M129 250l272 156q29 -62 86.5 -101t120.5 -39q113 0 200 62.5t103 144.5q21 107 -39.5 163t-169.5 56q-79 0 -167 -33t-154 -114l-141 82l237 714h787l-47 -262h-560l-73 -217q45 34 116.5 52t141.5 18q189 0 291.5 -121.5t64.5 -337.5q-37 -216 -214.5 -354.5 t-426.5 -138.5q-140 0 -255 73.5t-173 196.5z" />
<glyph unicode="6" horiz-adv-x="1200" d="M203 446q9 95 25 183t44.5 183.5t66.5 176t93.5 153.5t122.5 123t157.5 78t194.5 25q65 -2 117 -14.5t102.5 -40.5t88 -79.5t59.5 -125.5l-287 -115q-33 107 -137 107q-71 0 -128.5 -34.5t-95 -92.5t-60.5 -123t-34 -137q12 20 36 43.5t60.5 49t90.5 42t112 16.5 q75 0 141.5 -28t117.5 -81.5t72 -142.5t1 -200q-32 -193 -187.5 -312.5t-375.5 -119.5q-194 0 -305.5 127.5t-91.5 338.5zM518 428q-12 -72 30 -124t114 -52q73 0 134.5 52t73.5 124t-31.5 124t-115.5 52t-132.5 -52t-72.5 -124z" />
<glyph unicode="7" horiz-adv-x="1126" d="M182 0l662 1077h-568l50 264h1011l-829 -1341h-326z" />
<glyph unicode="8" horiz-adv-x="1220" d="M176 430q20 109 87 197.5t165 140.5q-79 88 -55 225q29 156 168.5 265.5t310.5 109.5q172 0 273.5 -109t76.5 -266q-23 -136 -139 -225q81 -52 117 -140.5t16 -197.5q-21 -124 -108.5 -228t-215.5 -163t-266 -59q-139 0 -245 59t-156 162.5t-29 228.5zM465 444 q-15 -84 40 -141t146 -57t168 57.5t92 140.5q13 83 -35 142t-155 59q-104 0 -173.5 -59.5t-82.5 -141.5zM647 985q-11 -54 18 -91.5t95 -37.5t108.5 37t53.5 92q11 52 -20 88.5t-95 36.5q-63 0 -106 -36t-54 -89z" />
<glyph unicode="9" horiz-adv-x="1198" d="M158 240l288 114q33 -106 138 -106q71 0 128.5 34.5t94 92.5t59 122.5t33.5 137.5q-87 -152 -297 -152q-58 0 -112 17.5t-101.5 53t-78.5 89.5t-43 127t5 166q32 193 187.5 312.5t374.5 119.5q193 0 306 -128t93 -339q-9 -94 -25.5 -182.5t-45 -183.5t-66.5 -175.5 t-94 -153.5t-123.5 -123t-158 -78t-194.5 -25q-65 2 -116.5 14.5t-101.5 40.5t-88 79.5t-62 125.5zM565 920q-12 -72 30.5 -124.5t115.5 -52.5q71 0 133 52.5t74 124.5t-30.5 124t-115.5 52q-71 0 -133 -52t-74 -124z" />
<glyph unicode=":" horiz-adv-x="630" d="M164 152q12 72 73 121t136 49q72 0 113.5 -48.5t29.5 -121.5q-12 -74 -72 -123t-133 -49t-116 49t-31 123zM281 805q12 73 73 122.5t133 49.5q73 0 116 -49t30 -123q-12 -72 -73.5 -121t-133.5 -49q-73 0 -115.5 48.5t-29.5 121.5z" />
<glyph unicode=";" horiz-adv-x="626" d="M-14 -207q86 99 156 243t94 288h288q-21 -114 -65.5 -216t-101 -176t-104.5 -122.5t-97 -85.5zM297 805q12 73 73.5 122.5t133.5 49.5q73 0 115.5 -49t29.5 -123q-12 -72 -73.5 -121t-133.5 -49q-73 0 -115.5 48.5t-29.5 121.5z" />
<glyph unicode="&#x3c;" horiz-adv-x="1277" d="M180 500l41 229l1100 393l-37 -225l-795 -283l693 -282l-41 -226z" />
<glyph unicode="=" horiz-adv-x="1220" d="M190 305l35 201h942l-34 -201h-943zM262 717l39 201h942l-39 -201h-942z" />
<glyph unicode="&#x3e;" horiz-adv-x="1277" d="M174 106l37 226l790 282l-690 283l41 225l959 -393l-41 -229z" />
<glyph unicode="?" horiz-adv-x="1015" d="M252 999q37 196 175.5 312t332.5 116t294 -108t68 -291q-29 -147 -121 -248.5t-223 -138.5q-65 -18 -94 -56t-43 -114l-10 -45h-279l2 45q10 57 16.5 87.5t18 73t24.5 65.5t34 53t49 50t66.5 41.5t88.5 41.5l90 35q53 27 70.5 50t24.5 62q8 48 -26 79.5t-99 31.5 q-67 0 -114.5 -38.5t-57.5 -103.5h-287zM268 152q12 72 73 121t136 49q73 0 115.5 -48.5t30.5 -121.5q-12 -74 -73 -123t-134 -49t-116.5 49t-31.5 123z" />
<glyph unicode="@" horiz-adv-x="1974" d="M184 526q32 184 131 350.5t238 287.5t316 192t360 71q185 0 342 -66t262 -179.5t151.5 -275t14.5 -343.5q-14 -77 -40 -156t-70.5 -160t-99.5 -143t-132 -101.5t-162 -39.5q-61 0 -110.5 16t-90 53.5t-53.5 97.5t0 149l47 258q17 101 -38.5 170t-155.5 69 q-97 0 -180.5 -69.5t-100.5 -169.5q-15 -97 42 -166.5t155 -69.5q96 0 168 51l-33 -192q-86 -39 -170 -39q-172 0 -274 122.5t-70 293.5q32 176 175.5 297.5t317.5 121.5q171 0 271 -114q106 -116 82 -285l-54 -291q-11 -66 19.5 -94.5t81.5 -28.5q63 0 116 42.5t87 110.5 t55 134t33 133q26 144 -10.5 272t-121 217t-211 141t-274.5 52q-194 0 -373 -97t-300.5 -262t-157.5 -360q-27 -146 4.5 -277t108.5 -225.5t197.5 -150t266.5 -55.5h68l-33 -183h-68q-183 0 -335 69.5t-249.5 188.5t-137 284t-5.5 349z" />
<glyph unicode="A" d="M-12 0l772 1411h325l275 -1411h-316l-67 334h-488l-182 -334h-319zM633 594h293l-62 491z" />
<glyph unicode="B" horiz-adv-x="1304" d="M166 0l248 1411h565q193 0 287 -105q71 -79 70 -202q0 -40 -7 -86q-14 -79 -73 -152.5t-166 -111.5q82 -23 134 -79q52 -57 68 -119q9 -35 10 -70q0 -27 -6 -54q-34 -182 -176.5 -307t-347.5 -125h-606zM512 264h289q70 0 119.5 52.5t62.5 121.5q4 18 4 35q0 43 -25 81 q-34 52 -108 52h-283zM616 854h236q60 0 103.5 41t54.5 104q3 20 3 37q0 43 -19 71q-27 40 -91 40h-233z" />
<glyph unicode="C" horiz-adv-x="1431" d="M207 702q36 198 157 364t301 263.5t377 97.5q186 0 324.5 -80t212.5 -219l-276 -167q-42 87 -122 135.5t-188 48.5q-175 0 -313.5 -128.5t-171.5 -314.5q-9 -48 -9 -93q0 -125 69 -219q93 -128 268 -128q108 0 211.5 53.5t177.5 141.5l209 -168q-118 -142 -289 -225.5 t-359 -83.5q-147 0 -268.5 57.5t-198 154.5t-107.5 230q-17 72 -17 149q0 64 12 131z" />
<glyph unicode="D" horiz-adv-x="1447" d="M166 0l248 1411h553q120 0 216.5 -35t160 -99t103.5 -153q39 -88 45 -194q1 -24 1 -49q0 -85 -14 -179q-27 -151 -92.5 -279t-161.5 -222.5t-226.5 -147.5t-279.5 -53h-553zM512 272h254q83 0 154 34.5t122 94.5t86 136t52 165q12 57 12 111q0 27 -3 55q-10 80 -39.5 140 t-89 95.5t-140.5 35.5h-254z" />
<glyph unicode="E" horiz-adv-x="1179" d="M166 0l248 1411h893l-45 -264h-594l-60 -322h520l-45 -260h-520l-53 -301h612l-45 -264h-911z" />
<glyph unicode="F" horiz-adv-x="1101" d="M166 0l248 1411h882l-45 -264h-581l-60 -322h461l-45 -262h-461l-98 -563h-301z" />
<glyph unicode="G" horiz-adv-x="1548" d="M207 702q36 197 160 363.5t307.5 264t382.5 97.5q161 0 287.5 -61.5t201.5 -169.5l-254 -190q-102 143 -282 143q-178 0 -324 -131t-178 -316q-8 -44 -8 -86q0 -72 24 -138q36 -102 122 -163t202 -61q79 0 161.5 29.5t146.5 87t77 127.5h-379l43 243h725 q-67 -382 -284.5 -571.5t-536.5 -189.5q-199 0 -348 97t-215 263q-43 108 -43 230q0 64 12 132z" />
<glyph unicode="H" horiz-adv-x="1435" d="M166 0l248 1411h299l-103 -575h502l102 575h304l-248 -1411h-303l98 567h-502l-98 -567h-299z" />
<glyph unicode="I" horiz-adv-x="630" d="M166 0l248 1411h299l-248 -1411h-299z" />
<glyph unicode="J" horiz-adv-x="632" d="M-281 -449l76 271q61 -23 176 -23q151 0 193 195l250 1417h301l-250 -1417q-19 -101 -59.5 -184t-104.5 -150.5t-161.5 -105t-219.5 -37.5q-65 0 -201 34z" />
<glyph unicode="K" horiz-adv-x="1247" d="M166 0l248 1411h303l-82 -463l416 463h352l-660 -698l539 -713h-389l-342 479l-82 -479h-303z" />
<glyph unicode="L" horiz-adv-x="1046" d="M166 0l248 1411h301l-203 -1147h528l-45 -264h-829z" />
<glyph unicode="M" horiz-adv-x="1869" d="M88 0l422 1411h248l266 -909l582 909h252l-76 -1411h-301l49 846l-451 -684h-231l-211 684l-248 -846h-301z" />
<glyph unicode="N" horiz-adv-x="1390" d="M166 0l248 1411h274l334 -844l149 844h302l-248 -1411h-269l-342 854l-149 -854h-299z" />
<glyph unicode="O" horiz-adv-x="1599" d="M207 702q36 197 159.5 363.5t305 264t377.5 97.5q198 0 346 -97q147 -98 213 -264q42 -107 43 -228q0 -66 -13 -136q-26 -146 -106 -279.5t-193 -230.5t-256 -154.5t-290 -57.5q-146 0 -268.5 57.5t-200.5 154.5q-78 96 -110 230q-18 74 -19 153q0 62 12 127zM506 702 q-8 -44 -8 -84q0 -124 74 -218q98 -124 272 -124q176 0 319.5 124t175.5 302q8 43 8 84q0 125 -75 219q-99 125 -275 125t-317 -125t-174 -303z" />
<glyph unicode="P" horiz-adv-x="1257" d="M166 0l248 1411h579q79 0 143.5 -18.5t108.5 -50.5t76 -76t45 -96q14 -52 18 -108q1 -15 1 -30q0 -41 -9 -84q-17 -91 -59.5 -172t-109 -146.5t-164.5 -104t-214 -38.5h-278l-84 -487h-301zM598 750h264q82 0 141 61.5t72 136.5q4 21 4 42q1 25 -5 49q-10 44 -44.5 76 t-87.5 32h-272z" />
<glyph unicode="Q" horiz-adv-x="1613" d="M207 702q36 197 160 363.5t307.5 264t382.5 97.5q150 0 275 -57.5t204.5 -155t112.5 -231.5q18 -74 18 -151q0 -64 -12 -130q-32 -180 -141.5 -334.5t-270.5 -256.5l94 -226l-233 -127l-109 246q-95 -24 -194 -24q-199 0 -348 97t-215 263q-43 108 -43 230q0 64 12 132z M508 702q-8 -44 -8 -85q0 -103 51 -187q72 -117 213 -149q60 -13 117 -13l-76 189l233 125l95 -220q183 128 221 340q7 43 7 83q0 74 -25 140q-38 102 -125 161t-203 59q-179 0 -323.5 -129t-176.5 -314z" />
<glyph unicode="R" horiz-adv-x="1304" d="M166 0l248 1411h577q78 0 143 -18.5t109 -50.5t76.5 -76t46.5 -96q16 -52 20 -108q1 -15 1 -30q0 -41 -9 -84q-27 -160 -140 -286.5t-292 -161.5l264 -500h-360l-232 487h-67l-84 -487h-301zM598 750h254q82 0 141 61.5t72 136.5q4 21 4 42q1 25 -5 49q-10 44 -44.5 76 t-87.5 32h-262z" />
<glyph unicode="S" horiz-adv-x="1191" d="M162 414h301q-1 -11 -1 -21q0 -59 38 -101q46 -48 143 -48q93 0 157.5 40.5t76.5 108.5q5 17 5 33q0 33 -20 60q-30 40 -125 67l-164 49q-71 21 -125.5 51.5t-86.5 65.5t-52 71q-21 36 -27 76q-6 37 -6 68q0 35 7 72q32 186 192.5 303.5t366.5 117.5q101 0 183.5 -30 t137 -84.5t76.5 -136.5q12 -45 12 -95q0 -41 -8 -86h-299q3 18 3 33q1 51 -29 84q-38 43 -127 43q-79 0 -139 -39.5t-70 -101.5q-2 -10 -2 -19q0 -83 129 -125l159 -51q319 -102 319 -344q0 -40 -9 -84q-16 -81 -57.5 -150t-98.5 -117t-127.5 -81.5t-145.5 -49.5t-151 -16 q-228 1 -348 123q-95 96 -95 235q0 38 7 79z" />
<glyph unicode="T" horiz-adv-x="1179" d="M258 1141l47 270h1065l-47 -270h-381l-201 -1141h-303l201 1141h-381z" />
<glyph unicode="U" horiz-adv-x="1396" d="M238 504l161 907h306l-162 -907q-5 -26 -5 -50q0 -72 46 -124q61 -68 159 -68t182.5 68t104.5 174l162 907h301l-162 -907q-26 -154 -123.5 -275.5t-232.5 -185t-281 -63.5q-109 0 -201.5 37.5t-155.5 104.5t-91 166q-16 59 -16 123q0 45 8 93z" />
<glyph unicode="V" horiz-adv-x="1191" d="M281 1411h311l88 -926l414 926h313l-678 -1411h-266z" />
<glyph unicode="W" horiz-adv-x="1814" d="M246 1411h323l119 -889q121 259 309 690h246l66 -690l432 889h325l-727 -1411h-235l-70 741l-323 -741h-238z" />
<glyph unicode="X" horiz-adv-x="1347" d="M8 0l621 752l-330 659h360l189 -422l338 422h358l-559 -659l356 -752h-354l-223 512l-404 -512h-352z" />
<glyph unicode="Y" horiz-adv-x="1333" d="M217 1411h356l248 -528l436 528h357l-684 -776l-111 -635h-305l113 639z" />
<glyph unicode="Z" horiz-adv-x="1218" d="M86 0l39 227l809 920h-619l45 264h1008l-41 -227l-813 -920h651l-45 -264h-1034z" />
<glyph unicode="[" horiz-adv-x="692" d="M63 -469l334 1880h473l-36 -207h-232l-258 -1462h231l-38 -211h-474z" />
<glyph unicode="\" horiz-adv-x="1024" d="M307 1411h228l430 -1411h-228z" />
<glyph unicode="]" horiz-adv-x="692" d="M-12 -469l35 211h231l258 1462h-231l36 207h474l-334 -1880h-469z" />
<glyph unicode="_" horiz-adv-x="1521" d="M72 -270l37 204h1275l-36 -204h-1276z" />
<glyph unicode="`" horiz-adv-x="1134" d="M520 1448h283l164 -344h-205z" />
<glyph unicode="a" horiz-adv-x="1253" d="M158 479q20 111 78.5 206t138 158t173 98.5t185.5 35.5q28 0 60 -5.5t70.5 -18t72.5 -39.5t53 -64l19 106h282l-168 -956h-282l20 109q-54 -62 -144 -94.5t-157 -32.5q-93 0 -174.5 35.5t-139 98t-82.5 157.5q-14 53 -14 110q0 47 9 96zM453 479q-4 -22 -4 -42 q0 -71 47 -121q60 -64 155 -64q94 0 173 62t100 165q4 23 4 44q0 72 -46 121q-59 63 -151 63q-95 0 -178 -64.5t-100 -163.5z" />
<glyph unicode="b" horiz-adv-x="1232" d="M131 0l260 1477h283l-113 -637q46 65 129 101t176 36t170.5 -36t129.5 -99.5t72 -159.5q10 -48 11 -100q0 -51 -10 -107q-27 -147 -112 -261.5t-200 -174t-239 -59.5q-92 0 -162 37t-94 102l-18 -119h-283zM502 481q-5 -26 -5 -50q-1 -69 39 -117q52 -64 146 -64 t168 63.5t94 167.5q5 26 5 50q0 68 -39 115q-52 63 -146 63q-89 0 -167 -63.5t-95 -164.5z" />
<glyph unicode="c" horiz-adv-x="1075" d="M156 481q27 147 120.5 262t221.5 174.5t266 59.5q129 0 228 -52.5t153 -150.5l-262 -166q-20 46 -64.5 71.5t-101.5 25.5q-94 0 -178 -63t-101 -161q-5 -23 -5 -44q0 -68 47 -119q61 -66 155 -66q121 0 205 96l200 -164q-86 -98 -204 -151t-248 -53q-102 0 -190 36.5 t-149 100.5t-87 159q-15 54 -15 112q0 45 9 93z" />
<glyph unicode="d" horiz-adv-x="1232" d="M160 475q27 149 112 265t200 176.5t239 60.5q93 0 163 -36t93 -101l114 637h283l-262 -1477h-283l19 119q-47 -65 -129 -102t-174 -37t-170 35t-130.5 98t-73.5 157q-11 48 -11 101q0 50 10 104zM455 481q-5 -27 -5 -52q0 -69 38 -115q51 -64 145 -64q92 0 167.5 64 t96.5 167q5 26 5 50q0 71 -41 117q-54 62 -146 61.5t-167.5 -64.5t-92.5 -164z" />
<glyph unicode="e" horiz-adv-x="1126" d="M156 481q27 148 115 262t211.5 174t260.5 60q207 1 325 -141q88 -106 87 -256q0 -51 -10 -107q-15 -64 -23 -88h-700v-9q0 -72 61 -110q65 -42 150 -41q139 0 223 90l182 -141q-90 -101 -213.5 -147.5t-257.5 -46.5q-102 0 -187 36.5t-141.5 101t-79.5 158.5 q-12 51 -12 106q0 48 9 99zM461 563h413v11q0 74 -50 112q-54 42 -124.5 41.5t-139 -40.5t-99.5 -124z" />
<glyph unicode="f" horiz-adv-x="751" d="M174 731l41 225h180l15 66q37 220 170.5 337.5t341.5 117.5h104l-51 -273h-105q-72 0 -116 -47t-58 -135l-14 -66h192l-40 -225h-193l-127 -731h-287l127 731h-180z" />
<glyph unicode="g" horiz-adv-x="1245" d="M70 -180q40 17 123.5 55.5t123.5 56.5q12 -65 77 -109t138 -44q282 0 324 340q-43 -64 -129 -101.5t-180 -37.5q-92 0 -172 35.5t-135.5 98t-78.5 156.5q-12 51 -12 106q0 48 9 99q20 112 77 207.5t134 159t169.5 99.5t184.5 36q94 0 167 -37.5t93 -101.5l23 118h276 l-145 -823q-53 -303 -221 -456.5t-427 -153.5q-158 0 -270 80.5t-149 216.5zM455 481q-5 -27 -5 -51q0 -68 42 -116q56 -66 149 -66t173.5 65.5t100.5 167.5q4 23 4 45q0 71 -44 119q-57 62 -152 62t-173 -63.5t-95 -162.5z" />
<glyph unicode="h" horiz-adv-x="1185" d="M131 0l260 1477h285l-119 -670q41 82 130.5 126t168.5 44q188 -1 264 -119q50 -78 50 -200q0 -63 -13 -138l-90 -520h-285l88 510q4 24 4 45q0 57 -31 95q-43 50 -114 50q-48 0 -92.5 -17t-83 -63t-49.5 -114l-88 -506h-285z" />
<glyph unicode="i" horiz-adv-x="544" d="M131 0l168 956h283l-168 -956h-283zM326 1311q12 70 72.5 118t133.5 48q74 1 116 -47q33 -37 33 -89q0 -14 -3 -30q-12 -69 -72.5 -118.5t-132.5 -49.5q-73 1 -116 49q-34 38 -34 89q0 15 3 30z" />
<glyph unicode="j" horiz-adv-x="548" d="M-201 -481l43 258h125q68 0 103.5 44.5t46.5 106.5l182 1028h287l-183 -1022q-34 -200 -137 -307.5t-293 -107.5h-174zM328 1311q12 70 73 118t134 48q74 0 117 -47q33 -37 33 -89q0 -14 -3 -30q-12 -69 -73 -118.5t-134 -49.5t-116 49q-34 37 -34 89q0 15 3 30z" />
<glyph unicode="k" horiz-adv-x="1077" d="M131 0l260 1477h283l-137 -783l272 262h362l-473 -421l385 -535h-350l-254 379l-65 -379h-283z" />
<glyph unicode="l" horiz-adv-x="546" d="M131 0l260 1477h285l-260 -1477h-285z" />
<glyph unicode="m" horiz-adv-x="1748" d="M131 0l168 956h285l-25 -139q46 74 122.5 116t156.5 42q227 0 276 -168q140 170 318 170q176 -1 252 -111q51 -74 51 -193q0 -59 -13 -130l-94 -543h-282l88 510q5 28 5 52q0 54 -25 88q-36 50 -103 50q-73 0 -127 -47.5t-72 -146.5l-88 -506h-285l90 516q3 23 3 43 q0 57 -26 93q-36 48 -101 48q-73 0 -128.5 -46.5t-72.5 -147.5l-88 -506h-285z" />
<glyph unicode="n" horiz-adv-x="1163" d="M131 0l168 956h285l-25 -139q51 72 135 116t170 44q166 0 240 -103q51 -70 50 -185q0 -54 -11 -118l-101 -571h-284l88 510q6 30 6 56q0 54 -25 86q-37 48 -112 48q-178 0 -211 -194l-88 -506h-285z" />
<glyph unicode="o" horiz-adv-x="1140" d="M156 481q27 148 114.5 262t210 174t258.5 60q101 0 185.5 -35.5t141.5 -98.5t80 -157q12 -50 12 -105q0 -48 -9 -100q-27 -147 -114.5 -261.5t-210.5 -175t-259 -60.5q-209 0 -329 138q-90 104 -90 254q0 50 10 105zM436 481q-4 -24 -4 -46q0 -66 38 -112q52 -61 142 -61 q92 0 165.5 61t90.5 158q4 24 4 47q0 66 -38 110q-50 60 -142 60q-90 0 -164.5 -60.5t-91.5 -156.5z" />
<glyph unicode="p" horiz-adv-x="1232" d="M45 -469l254 1425h283l-23 -118q49 65 132 102t175 37q91 0 168.5 -35.5t130 -98.5t73.5 -157q11 -49 11 -101q0 -50 -10 -104q-40 -223 -200 -362t-351 -139q-93 0 -162 36t-92 101l-106 -586h-283zM502 475q-5 -27 -5 -50q0 -70 40 -116q53 -61 145 -61q93 0 169 63.5 t93 163.5q4 26 4 49q0 71 -38 119q-52 64 -146 64q-92 0 -168.5 -65t-93.5 -167z" />
<glyph unicode="q" horiz-adv-x="1232" d="M160 481q27 147 111.5 261.5t199 174.5t238.5 60q95 0 165.5 -37t88.5 -102l22 118h285l-254 -1425h-285l107 586q-46 -65 -129 -101t-177 -36q-91 0 -168.5 35.5t-130 99t-73.5 159.5q-10 48 -10 100t10 107zM455 475q-4 -26 -4 -49q0 -69 37 -116q50 -62 143 -62 t168 61.5t96 165.5q5 26 5 49q0 69 -40 118q-54 65 -147 65q-92 0 -166.5 -64.5t-91.5 -167.5z" />
<glyph unicode="r" horiz-adv-x="866" d="M131 0l168 956h285l-41 -231q58 125 145 188.5t170 63.5q97 0 156 -35l-94 -256q-57 29 -142 29q-122 0 -195.5 -94t-109.5 -287l-57 -334h-285z" />
<glyph unicode="s" horiz-adv-x="956" d="M127 309h266q-1 -6 -1 -13q0 -36 30 -64q34 -34 92 -33q49 0 87 22t44 58q6 31 -11.5 49.5t-68.5 31.5l-121 33q-56 16 -99 37.5t-68.5 42t-41.5 48t-22.5 48t-6.5 50t2 45t7 41.5q21 107 146 189.5t274 82.5q74 0 138 -17t115 -53q52 -35 76 -99q15 -40 14 -89 q0 -29 -5 -60h-268q4 26 -4 43.5t-24 26t-32 11.5t-35 3q-47 0 -77 -19.5t-35 -51.5q-1 -6 -1 -11q0 -42 72 -61l154 -43q53 -15 93 -37.5t62.5 -48.5t36.5 -52.5t18 -54.5t4 -47.5t-3 -37.5q-14 -73 -60.5 -131.5t-112 -94.5t-141 -54.5t-153.5 -18.5q-74 0 -140.5 22 t-116.5 62t-74 104q-15 40 -14 85q0 27 5 56z" />
<glyph unicode="t" horiz-adv-x="747" d="M174 731l41 225h174l66 367h282l-65 -367h200l-41 -225h-200l-127 -731h-283l127 731h-174z" />
<glyph unicode="u" horiz-adv-x="1163" d="M186 385l101 571h286l-90 -510q-5 -26 -5 -48q0 -17 3 -31q7 -33 20 -54.5t34.5 -34t41.5 -17.5t41 -5q74 0 131 47t76 148l90 505h285l-168 -956h-284l20 131q-49 -70 -125.5 -110.5t-148.5 -40.5q-168 0 -256 104q-62 75 -62 196q0 49 10 105z" />
<glyph unicode="v" horiz-adv-x="1064" d="M174 956h303l117 -594l328 594h305l-574 -956h-243z" />
<glyph unicode="w" horiz-adv-x="1562" d="M184 956h303l70 -569l268 569h244l68 -569l270 569h303l-504 -956h-237l-82 608l-287 -608h-238z" />
<glyph unicode="x" horiz-adv-x="1085" d="M8 0l467 518l-237 438h331l107 -211l178 211h330l-393 -438l284 -518h-330l-151 293l-256 -293h-330z" />
<glyph unicode="y" horiz-adv-x="1044" d="M59 -469l332 567l-217 858h303l113 -542l311 542h303l-844 -1425h-301z" />
<glyph unicode="z" horiz-adv-x="1044" d="M84 0l35 211l538 483h-421l45 262h833l-37 -213l-545 -481h459l-45 -262h-862z" />
<glyph unicode="{" horiz-adv-x="843" d="M129 385l33 172q48 0 91.5 32.5t53.5 86.5l58 325q21 123 93.5 217.5t175 143.5t216.5 49h174l-37 -207h-180q-69 0 -126.5 -50.5t-70.5 -125.5l-61 -336q-16 -85 -78.5 -146t-124.5 -75q59 -14 100 -74.5t25 -146.5l-55 -313q-12 -76 27.5 -133.5t107.5 -57.5h180 l-41 -215h-174q-84 0 -154.5 29t-118 81t-66.5 130t-1 170l57 325q10 54 -23 86.5t-81 32.5z" />
<glyph unicode="|" horiz-adv-x="448" d="M102 -254l338 1896h150l-338 -1896h-150z" />
<glyph unicode="}" horiz-adv-x="843" d="M-14 -469l34 215h181q67 0 127.5 58t72.5 133l56 313q14 85 76.5 146t123.5 75q-54 14 -94 75t-26 146l59 336q13 74 -27 125t-110 51h-180l36 207h174q175 0 274 -112.5t68 -297.5l-57 -325q-10 -54 22.5 -86.5t80.5 -32.5l-31 -172q-48 0 -92 -32.5t-54 -86.5l-57 -325 q-21 -122 -94 -217t-176 -144t-217 -49h-170z" />
<glyph unicode="&#xa1;" horiz-adv-x="546" d="M31 -469l219 999h233l-137 -999h-315zM238 805q12 73 73 122.5t133 49.5q73 0 117 -49t31 -123q-12 -72 -74.5 -121t-134.5 -49q-73 0 -115.5 48.5t-29.5 121.5z" />
<glyph unicode="&#xa2;" horiz-adv-x="1101" d="M162 481q24 129 100.5 233.5t182.5 168t229 86.5l39 221h149l-37 -215q109 -11 194 -63t132 -138l-260 -166q-23 47 -67.5 72t-100.5 25q-94 0 -178 -63t-101 -161q-19 -99 43 -164t156 -65q119 0 203 96l201 -164q-160 -180 -398 -202l-43 -236h-149l43 242 q-113 19 -198 84.5t-124.5 173t-15.5 235.5z" />
<glyph unicode="&#xa3;" horiz-adv-x="1392" d="M84 0l43 254h217l57 317h-170l23 129h170l47 269q36 208 181 333t337 125q97 0 174.5 -28.5t131.5 -85t74.5 -148t0.5 -209.5h-297q29 168 -133 168q-72 0 -121 -41.5t-61 -113.5l-47 -269h235l-22 -129h-236l-57 -317h377q28 0 48.5 21t26.5 53l11 59h280l-20 -115 q-20 -116 -108 -194t-197 -78h-965z" />
<glyph unicode="&#xa4;" horiz-adv-x="1271" d="M186 330l170 147q-40 86 -18 217q21 123 98 219l-121 148l166 141l123 -147q106 61 225 61q120 0 211 -61l170 147l117 -141l-174 -150q45 -110 27 -217q-22 -124 -103 -217l121 -147l-168 -142l-119 148q-112 -62 -231 -62q-121 0 -207 62l-172 -148zM588 694 q-14 -72 25.5 -121t111.5 -49t132.5 50t72.5 120q12 72 -30.5 122t-115.5 50q-71 0 -126.5 -49.5t-69.5 -122.5z" />
<glyph unicode="&#xa5;" horiz-adv-x="1519" d="M309 1411h357l247 -528l437 528h356l-659 -747h299l-23 -140h-319l-35 -190h319l-24 -139h-320l-33 -195h-305l33 195h-317l24 139h318l34 190h-317l22 140h299z" />
<glyph unicode="&#xa6;" horiz-adv-x="452" d="M104 -254l140 786h149l-139 -786h-150zM303 860l139 782h150l-139 -782h-150z" />
<glyph unicode="&#xa7;" horiz-adv-x="1107" d="M119 -4l252 72q7 -81 53 -119.5t108 -38.5q76 0 137.5 49t78.5 129l63 361q13 79 -31.5 127.5t-120.5 48.5h-12q-39 0 -92 -9l45 250q56 13 105 13q90 0 163.5 -30.5t122.5 -85.5t69.5 -136.5t4.5 -177.5l-64 -361q-36 -192 -183.5 -311t-330.5 -119q-71 0 -135 21 t-116 61t-83.5 106t-33.5 150zM231 635l64 360q24 128 100.5 227t184 151t227.5 52q71 0 135.5 -21t117 -61t84.5 -106t34 -150l-252 -71q-10 82 -56 120t-108 38q-75 0 -135.5 -49.5t-77.5 -129.5l-64 -360q-17 -78 29.5 -127t122.5 -49h12q45 0 92 8l-45 -250 q-56 -12 -104 -12q-88 0 -162.5 31t-125 85.5t-71 136t-2.5 177.5z" />
<glyph unicode="&#xa8;" horiz-adv-x="1148" d="M477 1307q10 59 61 99t113 40q61 0 96 -40t25 -99q-10 -60 -60 -101t-110 -41q-62 0 -98.5 41t-26.5 101zM840 1307q10 59 61 99t113 40q61 0 96 -40t25 -99q-10 -60 -60 -101t-110 -41q-62 0 -98.5 41t-26.5 101z" />
<glyph unicode="&#xa9;" horiz-adv-x="1632" d="M223 702q36 197 159.5 363.5t305 264t377.5 97.5t344.5 -97.5t214.5 -264.5t31 -363q-27 -148 -107 -281.5t-193 -230t-256 -153.5t-290 -57q-148 0 -270.5 57t-200.5 153.5t-110 230t-5 281.5zM383 702q-26 -153 24 -281.5t163.5 -204t265.5 -75.5q151 0 293 75 t240 204.5t124 281.5q20 115 -4.5 219t-85 180t-156 120.5t-209.5 44.5q-152 0 -293 -75.5t-238 -205.5t-124 -283zM580 696q28 152 147 257.5t270 105.5q91 0 163.5 -43.5t109.5 -118.5l-152 -94q-60 94 -147 94q-79 0 -139.5 -57t-77.5 -144q-17 -82 23.5 -139t119.5 -57 q97 0 184 94l121 -92q-64 -77 -152.5 -122.5t-179.5 -45.5q-150 0 -234.5 107t-55.5 255z" />
<glyph unicode="&#xaa;" horiz-adv-x="958" d="M233 434l19 109h645l-18 -109h-646zM268 1001q28 160 145.5 257.5t262.5 97.5q132 0 194 -103l15 88h155l-120 -679h-156l16 92q-42 -49 -105 -78t-124 -29q-93 0 -164 43.5t-104.5 125.5t-14.5 185zM430 1004q-17 -89 29.5 -145t130.5 -56q83 0 150.5 54.5t84.5 146.5 q16 92 -35.5 144t-132.5 52q-83 0 -146.5 -53.5t-80.5 -142.5z" />
<glyph unicode="&#xab;" horiz-adv-x="1034" d="M162 477l358 424h221l-358 -424l209 -424h-221zM524 477l359 424h221l-359 -424l209 -424h-221z" />
<glyph unicode="&#xac;" horiz-adv-x="1286" d="M229 518l45 246h996l-96 -551h-248l51 305h-748z" />
<glyph unicode="&#xad;" horiz-adv-x="972" d="M193 391l38 225h723l-39 -225h-722z" />
<glyph unicode="&#xae;" horiz-adv-x="1632" d="M223 702q36 197 159.5 363.5t305 264t377.5 97.5t344.5 -97.5t214.5 -264.5t31 -363q-27 -148 -107 -281.5t-193 -230t-256 -153.5t-290 -57q-148 0 -270.5 57t-200.5 153.5t-110 230t-5 281.5zM383 702q-26 -153 24 -281.5t163.5 -204t265.5 -75.5q151 0 293 75 t240 204.5t124 281.5q20 115 -4.5 219t-85 180t-156 120.5t-209.5 44.5q-152 0 -293 -75.5t-238 -205.5t-124 -283zM625 356l127 695h290q77 0 127 -35t66 -87t4 -112q-14 -79 -67 -141t-134 -88l129 -232h-206l-107 224h-14l-43 -224h-172zM862 731h109q33 0 59.5 26.5 t32.5 59.5q5 28 -9.5 54t-43.5 26h-115z" />
<glyph unicode="&#xaf;" horiz-adv-x="1060" d="M457 1202l32 174h570l-33 -174h-569z" />
<glyph unicode="&#xb0;" horiz-adv-x="770" d="M281 1083q20 121 123.5 208t222.5 87q124 0 193.5 -86.5t49.5 -208.5t-124 -209.5t-226 -87.5q-120 0 -189.5 87t-49.5 210zM428 1083q-10 -63 24.5 -106t94.5 -43q63 0 114.5 43t61.5 106q11 62 -25.5 105t-99.5 43q-60 0 -110 -43.5t-60 -104.5z" />
<glyph unicode="&#xb1;" horiz-adv-x="1120" d="M137 -2l37 209h842l-37 -209h-842zM244 598l37 209h315l51 289h209l-51 -289h317l-37 -209h-317l-53 -293h-209l53 293h-315z" />
<glyph unicode="&#xb2;" horiz-adv-x="649" d="M215 889l14 88l387 379q50 47 58 90q6 34 -15 56t-67 22q-43 0 -79 -30.5t-54 -78.5l-148 27q38 111 122 175t194 64q105 0 167.5 -66.5t45.5 -168.5q-19 -102 -117 -197l-215 -205h242l-29 -155h-506z" />
<glyph unicode="&#xb3;" horiz-adv-x="649" d="M217 1042q6 2 25 11l53 24q29 13 76 37q12 -31 40 -51t64 -25q48 -4 87.5 26t39.5 56q0 1 2.5 12.5t3.5 22t-2 25.5q-11 50 -92 47h-82l25 141h82q37 0 60 21t28.5 38t5.5 27q5 27 -12.5 51.5t-55.5 24.5q-49 0 -90 -45q-9 3 -18 12q-2 1 -41 29l-58 41q45 56 115.5 87 t147.5 27q100 -7 152.5 -70t35.5 -147q-6 -47 -40 -87t-85 -66q60 -24 86 -85t8 -126q-25 -99 -126.5 -164t-217.5 -57q-79 6 -138.5 50.5t-78.5 112.5z" />
<glyph unicode="&#xb4;" horiz-adv-x="1134" d="M459 1104l286 344h283l-364 -344h-205z" />
<glyph unicode="&#xb5;" horiz-adv-x="1175" d="M76 -391l239 1347h285l-90 -510q-10 -55 -0.5 -94.5t32.5 -59t48 -28t53 -8.5q73 0 131.5 47t77.5 148l90 505h285l-168 -956h-285l21 131q-53 -70 -128.5 -110.5t-146.5 -40.5q-78 0 -139 55l-16 -271l-29 -155h-260z" />
<glyph unicode="&#xb6;" horiz-adv-x="1460" d="M238 967q32 185 183.5 314.5t338.5 129.5h190l-254 -1440q-5 -26 -18 -37.5t-41 -11.5h-162l109 600q-175 12 -276.5 139.5t-69.5 305.5zM420 -381l33 186h247q40 0 71.5 28t37.5 67l268 1511h279q118 0 185 -84.5t46 -196.5l-31 -174h-190l29 156q7 40 -17 66t-63 26 h-72l-229 -1304q-21 -108 -120 -194.5t-210 -86.5h-264z" />
<glyph unicode="&#xb7;" horiz-adv-x="575" d="M233 711q12 72 74.5 121t134.5 49q73 0 116 -49t30 -121q-12 -73 -73.5 -122.5t-133.5 -49.5q-73 0 -117 49t-31 123z" />
<glyph unicode="&#xb8;" horiz-adv-x="1087" d="M282 -266.5q1 23.5 11 73.5l156 -8l-5 -16q-4 -21 -2 -37q4 -24 24.5 -34.5t47.5 -4.5q28 10 40 34t7 52l-51 262h133l70 -190q15 -35 2 -101q-17 -87 -92.5 -148.5t-165.5 -61.5q-61 0 -107 35.5t-63 97.5q-6 23 -5 46.5z" />
<glyph unicode="&#xb9;" horiz-adv-x="440" d="M289 1393l24 143l324 141l-141 -788h-164l100 559z" />
<glyph unicode="&#xba;" horiz-adv-x="929" d="M223 434l19 109h645l-19 -109h-645zM279 1006q29 156 148 253t267 97t235.5 -97.5t59.5 -252.5q-27 -158 -150 -258.5t-270 -100.5q-148 0 -232.5 100t-57.5 259zM434 1006q-17 -90 31.5 -146.5t132.5 -56.5q82 0 150 56.5t83 146.5q13 86 -34.5 140t-130.5 54 q-84 0 -149.5 -52.5t-82.5 -141.5z" />
<glyph unicode="&#xbb;" horiz-adv-x="1034" d="M96 53l357 424l-205 424h221l205 -424l-357 -424h-221zM459 53l356 424l-205 424h221l205 -424l-356 -424h-221z" />
<glyph unicode="&#xbc;" horiz-adv-x="1603" d="M184 -20l1172 1388h168l-1170 -1388h-170zM266 1067l27 143l321 142l-139 -789h-164l99 559zM920 174l473 604h172l-82 -465h98l-25 -139h-98l-28 -174h-166l28 174h-372zM1169 313h148l43 244z" />
<glyph unicode="&#xbd;" horiz-adv-x="1619" d="M172 -20l1171 1388h168l-1169 -1388h-170zM266 1067l27 143l321 142l-139 -789h-164l99 559zM1010 0l14 88l387 379q46 46 55 90q6 33 -17 55.5t-69 22.5q-43 0 -77 -30t-52 -79l-145 27q39 111 122.5 175.5t192.5 64.5q104 0 168 -67.5t43 -168.5q-19 -103 -116 -197 l-218 -204h242l-24 -156h-506z" />
<glyph unicode="&#xbe;" horiz-adv-x="1699" d="M199 717q8 2 24 10l53 25l78 36q28 -66 103 -75q42 -4 80 22.5t49 59.5q11 32 4 59q-11 50 -92 47h-82l26 141h82q28 0 48.5 12t29 28.5t11.5 28t3 17.5q5 27 -12 51.5t-55 24.5q-58 0 -90 -45q-11 3 -19 12q-2 1 -41 29l-57 41q43 56 114 87.5t148 27.5q99 -7 153.5 -70 t37.5 -147q-21 -98 -127 -154q59 -24 86 -85.5t10 -125.5q-29 -100 -129 -164t-217 -57q-78 6 -136.5 50.5t-82.5 113.5zM315 -20l1172 1388h168l-1170 -1388h-170zM1016 174l471 604h172l-82 -465h98l-22 -139h-99l-30 -174h-166l31 174h-373zM1264 313h147l43 244z" />
<glyph unicode="&#xbf;" horiz-adv-x="997" d="M51 -72q26 146 119 247.5t225 139.5q65 18 93.5 56.5t41.5 113.5l15 45h278l-6 -45q-9 -51 -14.5 -77.5t-15 -65.5t-19 -59.5t-25 -49.5t-35 -47t-46.5 -39t-61.5 -38.5t-78.5 -34.5l-88 -35q-55 -27 -72 -49.5t-24 -63.5q-11 -48 24 -79t101 -31q67 0 113.5 38t58.5 103 h287q-37 -196 -175.5 -312t-332.5 -116t-294.5 108t-68.5 291zM549 805q12 73 74 122.5t135 49.5t115.5 -49t29.5 -123q-12 -72 -73.5 -121t-133.5 -49q-73 0 -116.5 49t-30.5 121z" />
<glyph unicode="&#xc0;" d="M-12 0l772 1411h325l275 -1411h-316l-67 334h-488l-182 -334h-319zM633 594h293l-62 491zM653 1903h283l164 -344h-205z" />
<glyph unicode="&#xc1;" d="M-12 0l772 1411h325l275 -1411h-316l-67 334h-488l-182 -334h-319zM633 594h293l-62 491zM809 1559l287 344h282l-364 -344h-205z" />
<glyph unicode="&#xc2;" d="M-12 0l772 1411h325l275 -1411h-316l-67 334h-488l-182 -334h-319zM584 1567l284 344h283l164 -344h-205l-129 182l-193 -182h-204zM633 594h293l-62 491z" />
<glyph unicode="&#xc3;" d="M-12 0l772 1411h325l275 -1411h-316l-67 334h-488l-182 -334h-319zM633 594h293l-62 491zM659 1608q34 139 106 202.5t150 63.5q30 0 55.5 -13t40 -29t32.5 -29t34 -13t38.5 20.5t31.5 63.5h153q-12 -58 -35 -105t-49.5 -75.5t-57.5 -47.5t-58 -26.5t-53 -7.5 q-35 0 -65.5 21t-55 42t-43.5 21q-15 0 -38 -22.5t-32 -65.5h-154z" />
<glyph unicode="&#xc4;" d="M-12 0l772 1411h325l275 -1411h-316l-67 334h-488l-182 -334h-319zM629 1761q10 59 62 99.5t114 40.5q60 0 94.5 -40t24.5 -100t-59 -100.5t-109 -40.5q-62 0 -99.5 41t-27.5 100zM633 594h293l-62 491zM991 1761q10 59 62 99.5t114 40.5q60 0 94.5 -40t24.5 -100 t-59 -100.5t-109 -40.5q-62 0 -99.5 41t-27.5 100z" />
<glyph unicode="&#xc5;" d="M-12 0l772 1411h325l275 -1411h-316l-67 334h-488l-182 -334h-319zM633 594h293l-62 491zM745 1804q17 105 102 178.5t187 73.5q105 0 164.5 -73t42.5 -179q-20 -103 -105.5 -174t-189.5 -71q-102 0 -161.5 71.5t-39.5 173.5zM879 1804q-10 -47 17 -79.5t75 -32.5 q49 0 87.5 32t49.5 80q10 51 -18 85t-78 34q-47 0 -84.5 -34t-48.5 -85z" />
<glyph unicode="&#xc6;" horiz-adv-x="1912" d="M-43 0l1139 1411h944l-45 -264h-594l-60 -322h521l-45 -260h-521l-53 -301h612l-45 -264h-911l-2 2v-2l55 324h-377l-260 -324h-358zM797 612h207l69 398z" />
<glyph unicode="&#xc7;" horiz-adv-x="1435" d="M209 702q27 148 105 281.5t188.5 231t253 155t291.5 57.5q186 0 324.5 -80t209.5 -219l-274 -167q-42 86 -123 135t-189 49q-175 0 -313.5 -128.5t-171.5 -314.5q-33 -185 61 -312.5t269 -127.5q108 0 210.5 53t176.5 142l209 -168q-107 -131 -257 -211.5t-319 -93.5 l41 -119q16 -40 4 -101q-17 -87 -92.5 -148.5t-165.5 -61.5q-61 0 -108 35.5t-64 97.5q-6 23 -5 46.5t11 73.5l158 -8l-4 -16q-5 -27 -4 -37q4 -24 24 -34.5t47 -4.5q28 10 40.5 34t7.5 52l-37 191q-176 19 -303 119t-180.5 257.5t-20.5 341.5z" />
<glyph unicode="&#xc8;" horiz-adv-x="1179" d="M166 0l248 1411h893l-45 -264h-594l-60 -322h520l-45 -260h-520l-53 -301h612l-45 -264h-911zM610 1903h283l164 -344h-205z" />
<glyph unicode="&#xc9;" horiz-adv-x="1179" d="M166 0l248 1411h893l-45 -264h-594l-60 -322h520l-45 -260h-520l-53 -301h612l-45 -264h-911zM711 1559l286 344h283l-365 -344h-204z" />
<glyph unicode="&#xca;" horiz-adv-x="1179" d="M166 0l248 1411h893l-45 -264h-594l-60 -322h520l-45 -260h-520l-53 -301h612l-45 -264h-911zM492 1567l284 344h283l164 -344h-205l-129 182l-193 -182h-204z" />
<glyph unicode="&#xcb;" horiz-adv-x="1179" d="M166 0l248 1411h893l-45 -264h-594l-60 -322h520l-45 -260h-520l-53 -301h612l-45 -264h-911zM561 1761q10 59 62 99.5t114 40.5q60 0 94.5 -40t24.5 -100t-59 -100.5t-109 -40.5q-62 0 -99.5 41t-27.5 100zM924 1761q10 59 62 99.5t114 40.5q60 0 94.5 -40t24.5 -100 t-59 -100.5t-109 -40.5q-62 0 -99.5 41t-27.5 100z" />
<glyph unicode="&#xcc;" horiz-adv-x="630" d="M166 0l248 1411h299l-248 -1411h-299zM291 1903h282l164 -344h-205z" />
<glyph unicode="&#xcd;" horiz-adv-x="630" d="M166 0l248 1411h299l-248 -1411h-299zM438 1559l287 344h283l-365 -344h-205z" />
<glyph unicode="&#xce;" horiz-adv-x="630" d="M166 0l248 1411h299l-248 -1411h-299zM227 1567l285 344h283l163 -344h-204l-129 182l-193 -182h-205z" />
<glyph unicode="&#xcf;" horiz-adv-x="630" d="M166 0l248 1411h299l-248 -1411h-299zM297 1761q10 59 62 99.5t114 40.5q60 0 94.5 -40t24.5 -100t-59 -100.5t-109 -40.5q-62 0 -99.5 41t-27.5 100zM659 1761q10 59 62.5 99.5t114.5 40.5q60 0 94 -40t24 -100t-59 -100.5t-109 -40.5q-62 0 -99.5 41t-27.5 100z" />
<glyph unicode="&#xd0;" horiz-adv-x="1478" d="M106 582l35 200h193l110 629h553q120 0 216.5 -35t160 -99t103.5 -152.5t45.5 -195t-13.5 -227.5q-27 -151 -92.5 -279t-161.5 -222.5t-226 -147.5t-279 -53h-553l102 582h-193zM543 272h254q83 0 153.5 34.5t121.5 94.5t86 136t52 165q19 87 9 166.5t-39.5 139.5 t-89 95.5t-140.5 35.5h-254l-63 -357h252l-35 -200h-252z" />
<glyph unicode="&#xd1;" horiz-adv-x="1390" d="M166 0l248 1411h274l334 -844l149 844h302l-248 -1411h-269l-342 854l-149 -854h-299zM682 1608q34 139 106 202.5t150 63.5q30 0 55.5 -13t40 -29t32.5 -29t34 -13t38 20.5t31 63.5h154q-15 -72 -46 -126t-68 -82t-72 -41t-68 -13q-35 0 -65.5 21t-55 42t-43.5 21 q-15 0 -37.5 -22.5t-31.5 -65.5h-154z" />
<glyph unicode="&#xd2;" horiz-adv-x="1599" d="M207 702q36 197 159.5 363.5t305 264t377.5 97.5q198 0 346 -97.5t213.5 -264t29.5 -363.5q-26 -146 -106 -279.5t-193 -230.5t-256 -154.5t-290 -57.5q-146 0 -268.5 57.5t-200.5 154.5t-110.5 230.5t-6.5 279.5zM506 702q-32 -177 66 -301.5t272 -124.5 q176 0 319.5 124t175.5 302t-67 303t-275 125t-317 -125t-174 -303zM770 1903h283l164 -344h-205z" />
<glyph unicode="&#xd3;" horiz-adv-x="1599" d="M207 702q36 197 159.5 363.5t305 264t377.5 97.5q198 0 346 -97.5t213.5 -264t29.5 -363.5q-26 -146 -106 -279.5t-193 -230.5t-256 -154.5t-290 -57.5q-146 0 -268.5 57.5t-200.5 154.5t-110.5 230.5t-6.5 279.5zM506 702q-32 -177 66 -301.5t272 -124.5 q176 0 319.5 124t175.5 302t-67 303t-275 125t-317 -125t-174 -303zM938 1559l287 344h282l-364 -344h-205z" />
<glyph unicode="&#xd4;" horiz-adv-x="1599" d="M207 702q36 197 159.5 363.5t305 264t377.5 97.5q198 0 346 -97.5t213.5 -264t29.5 -363.5q-26 -146 -106 -279.5t-193 -230.5t-256 -154.5t-290 -57.5q-146 0 -268.5 57.5t-200.5 154.5t-110.5 230.5t-6.5 279.5zM506 702q-32 -177 66 -301.5t272 -124.5 q176 0 319.5 124t175.5 302t-67 303t-275 125t-317 -125t-174 -303zM709 1567l284 344h283l164 -344h-205l-127 182l-195 -182h-204z" />
<glyph unicode="&#xd5;" horiz-adv-x="1599" d="M207 702q36 197 159.5 363.5t305 264t377.5 97.5q198 0 346 -97.5t213.5 -264t29.5 -363.5q-26 -146 -106 -279.5t-193 -230.5t-256 -154.5t-290 -57.5q-146 0 -268.5 57.5t-200.5 154.5t-110.5 230.5t-6.5 279.5zM506 702q-32 -177 66 -301.5t272 -124.5 q176 0 319.5 124t175.5 302t-67 303t-275 125t-317 -125t-174 -303zM786 1608q15 72 45.5 126.5t67 83.5t72.5 42.5t71 13.5q29 0 54 -13t40 -29t32.5 -29t33.5 -13t39 20.5t33 63.5h153q-17 -72 -47.5 -125.5t-66.5 -81.5t-70.5 -41.5t-68.5 -13.5t-65.5 21t-56.5 42 t-44 21q-15 0 -37 -22t-31 -66h-154z" />
<glyph unicode="&#xd6;" horiz-adv-x="1599" d="M207 702q36 197 159.5 363.5t305 264t377.5 97.5q198 0 346 -97.5t213.5 -264t29.5 -363.5q-26 -146 -106 -279.5t-193 -230.5t-256 -154.5t-290 -57.5q-146 0 -268.5 57.5t-200.5 154.5t-110.5 230.5t-6.5 279.5zM506 702q-32 -177 66 -301.5t272 -124.5 q176 0 319.5 124t175.5 302t-67 303t-275 125t-317 -125t-174 -303zM780 1761q10 59 61 99.5t113 40.5q61 0 96 -40.5t25 -99.5q-10 -60 -59 -100.5t-109 -40.5q-62 0 -99.5 41t-27.5 100zM1143 1761q10 59 61 99.5t113 40.5q61 0 96 -40.5t25 -99.5q-10 -60 -59 -100.5 t-109 -40.5q-62 0 -99.5 41t-27.5 100z" />
<glyph unicode="&#xd7;" horiz-adv-x="1005" d="M166 297l278 233l-196 238l176 147l194 -237l283 240l119 -148l-281 -240l197 -237l-176 -150l-197 240l-276 -233z" />
<glyph unicode="&#xd8;" horiz-adv-x="1595" d="M96 63l197 168q-137 201 -88 471q36 197 159.5 363.5t305 264t377.5 97.5q129 0 239 -43t189 -122l190 165l80 -94l-193 -168q129 -202 84 -463q-26 -146 -106 -279.5t-193 -230.5t-256 -154.5t-290 -57.5q-253 0 -420 157l-2 -2l-193 -168zM502 702q-27 -143 37 -256 l690 601q-89 83 -234 83q-176 0 -318.5 -125t-174.5 -303zM616 352q91 -76 226 -76q176 0 319.5 124t175.5 302q24 139 -37 246z" />
<glyph unicode="&#xd9;" horiz-adv-x="1396" d="M238 504l161 907h306l-162 -907q-20 -105 41 -173.5t159 -68.5t182.5 68t104.5 174l162 907h301l-162 -907q-26 -154 -123.5 -275.5t-232.5 -185t-281 -63.5q-109 0 -201.5 37.5t-155.5 104.5t-90.5 166t-8.5 216zM686 1903h283l164 -344h-205z" />
<glyph unicode="&#xda;" horiz-adv-x="1396" d="M238 504l161 907h306l-162 -907q-20 -105 41 -173.5t159 -68.5t182.5 68t104.5 174l162 907h301l-162 -907q-26 -154 -123.5 -275.5t-232.5 -185t-281 -63.5q-109 0 -201.5 37.5t-155.5 104.5t-90.5 166t-8.5 216zM807 1559l287 344h282l-364 -344h-205z" />
<glyph unicode="&#xdb;" horiz-adv-x="1396" d="M238 504l161 907h306l-162 -907q-20 -105 41 -173.5t159 -68.5t182.5 68t104.5 174l162 907h301l-162 -907q-26 -154 -123.5 -275.5t-232.5 -185t-281 -63.5q-109 0 -201.5 37.5t-155.5 104.5t-90.5 166t-8.5 216zM606 1567l285 344h283l163 -344h-204l-127 182 l-195 -182h-205z" />
<glyph unicode="&#xdc;" horiz-adv-x="1396" d="M238 504l161 907h306l-162 -907q-20 -105 41 -173.5t159 -68.5t182.5 68t104.5 174l162 907h301l-162 -907q-26 -154 -123.5 -275.5t-232.5 -185t-281 -63.5q-109 0 -201.5 37.5t-155.5 104.5t-90.5 166t-8.5 216zM678 1761q10 59 61 99.5t113 40.5q61 0 96 -40.5 t25 -99.5q-10 -60 -59 -100.5t-109 -40.5q-62 0 -99.5 41t-27.5 100zM1040 1761q10 59 61 99.5t113 40.5q61 0 96 -40.5t25 -99.5q-10 -60 -59 -100.5t-109 -40.5q-62 0 -99.5 41t-27.5 100z" />
<glyph unicode="&#xdd;" horiz-adv-x="1333" d="M217 1411h356l248 -528l436 528h357l-684 -776l-111 -635h-305l113 639zM786 1559l287 344h283l-365 -344h-205z" />
<glyph unicode="&#xde;" horiz-adv-x="1171" d="M166 0l248 1411h299l-41 -229h198q196 0 304.5 -126t72.5 -333q-24 -137 -104.5 -244t-194.5 -164t-241 -57h-199l-43 -258h-299zM555 512h184q70 0 131 56t78 147q17 96 -24 154.5t-111 58.5h-184z" />
<glyph unicode="&#xe0;" horiz-adv-x="1253" d="M158 479q20 111 78.5 206t138 158t173 98.5t185.5 35.5q28 0 60 -5.5t70.5 -18t72.5 -39.5t53 -64l19 106h282l-168 -956h-282l20 109q-54 -62 -144 -94.5t-157 -32.5q-93 0 -174.5 35.5t-139 98t-82.5 157.5t-5 206zM453 479q-17 -99 43 -163t155 -64q94 0 173 62 t100 165q17 102 -42 165t-151 63q-95 0 -178 -64.5t-100 -163.5zM532 1448h283l164 -344h-205z" />
<glyph unicode="&#xe1;" horiz-adv-x="1253" d="M158 479q20 111 78.5 206t138 158t173 98.5t185.5 35.5q28 0 60 -5.5t70.5 -18t72.5 -39.5t53 -64l19 106h282l-168 -956h-282l20 109q-54 -62 -144 -94.5t-157 -32.5q-93 0 -174.5 35.5t-139 98t-82.5 157.5t-5 206zM453 479q-17 -99 43 -163t155 -64q94 0 173 62 t100 165q17 102 -42 165t-151 63q-95 0 -178 -64.5t-100 -163.5zM627 1104l286 344h283l-365 -344h-204z" />
<glyph unicode="&#xe2;" horiz-adv-x="1253" d="M158 479q20 111 78.5 206t138 158t173 98.5t185.5 35.5q28 0 60 -5.5t70.5 -18t72.5 -39.5t53 -64l19 106h282l-168 -956h-282l20 109q-54 -62 -144 -94.5t-157 -32.5q-93 0 -174.5 35.5t-139 98t-82.5 157.5t-5 206zM453 479q-17 -99 43 -163t155 -64q94 0 173 62 t100 165q17 102 -42 165t-151 63q-95 0 -178 -64.5t-100 -163.5zM459 1112l284 344h283l164 -344h-205l-131 182l-190 -182h-205z" />
<glyph unicode="&#xe3;" horiz-adv-x="1253" d="M158 479q20 111 78.5 206t138 158t173 98.5t185.5 35.5q28 0 60 -5.5t70.5 -18t72.5 -39.5t53 -64l19 106h282l-168 -956h-282l20 109q-54 -62 -144 -94.5t-157 -32.5q-93 0 -174.5 35.5t-139 98t-82.5 157.5t-5 206zM453 479q-17 -99 43 -163t155 -64q94 0 173 62 t100 165q17 102 -42 165t-151 63q-95 0 -178 -64.5t-100 -163.5zM537 1153q15 72 44.5 126.5t65.5 83.5t71 42.5t70 13.5q29 0 55 -13t41 -29t33.5 -29t34.5 -13t37.5 20.5t30.5 63.5h154q-15 -72 -45 -126t-66 -82t-70.5 -41t-68.5 -13t-65.5 21t-56.5 42t-44 21 q-15 0 -37 -22t-31 -66h-153z" />
<glyph unicode="&#xe4;" horiz-adv-x="1253" d="M158 479q20 111 78.5 206t138 158t173 98.5t185.5 35.5q28 0 60 -5.5t70.5 -18t72.5 -39.5t53 -64l19 106h282l-168 -956h-282l20 109q-54 -62 -144 -94.5t-157 -32.5q-93 0 -174.5 35.5t-139 98t-82.5 157.5t-5 206zM453 479q-17 -99 43 -163t155 -64q94 0 173 62 t100 165q17 102 -42 165t-151 63q-95 0 -178 -64.5t-100 -163.5zM530 1307q10 59 61.5 99t113.5 40q61 0 95.5 -40t24.5 -99q-10 -60 -60 -101t-110 -41q-62 0 -98.5 41t-26.5 101zM893 1307q10 59 61 99t113 40q61 0 96 -40t25 -99q-10 -60 -60 -101t-110 -41 q-62 0 -98.5 41t-26.5 101z" />
<glyph unicode="&#xe5;" horiz-adv-x="1253" d="M158 479q20 111 78.5 206t138 158t173 98.5t185.5 35.5q28 0 60 -5.5t70.5 -18t72.5 -39.5t53 -64l19 106h282l-168 -956h-282l20 109q-54 -62 -144 -94.5t-157 -32.5q-93 0 -174.5 35.5t-139 98t-82.5 157.5t-5 206zM453 479q-17 -99 43 -163t155 -64q94 0 173 62 t100 165q17 102 -42 165t-151 63q-95 0 -178 -64.5t-100 -163.5zM621 1350q17 105 102.5 178.5t187.5 73.5q104 0 163 -73t42 -179q-20 -103 -105.5 -174.5t-189.5 -71.5q-102 0 -161 72t-39 174zM754 1350q-8 -48 18.5 -80.5t73.5 -32.5q50 0 90 33t47 80q10 50 -18 84 t-78 34q-47 0 -84.5 -33.5t-48.5 -84.5z" />
<glyph unicode="&#xe6;" horiz-adv-x="1986" d="M158 479q20 111 78.5 206t138 158t173 98.5t185.5 35.5q28 0 60 -5.5t70.5 -18t72.5 -39.5t53 -64l19 106h282l-14 -79q152 100 330 100q207 0 324 -141.5t77 -362.5q-18 -77 -22 -88h-701q-4 -77 61 -118.5t150 -41.5q139 0 223 90l183 -141q-90 -101 -213.5 -147.5 t-257.5 -46.5q-182 0 -293 102l-15 -82h-282l20 109q-54 -62 -144 -94.5t-157 -32.5q-93 0 -174.5 35.5t-139 98t-82.5 157.5t-5 206zM453 479q-17 -99 43 -163t155 -64q94 0 173 62t100 165q17 102 -42 165t-151 63q-95 0 -178 -64.5t-100 -163.5zM1323 563h414 q4 81 -49.5 122.5t-124.5 41.5t-140 -40t-100 -124z" />
<glyph unicode="&#xe7;" horiz-adv-x="1075" d="M156 481q27 147 120.5 262t221.5 174.5t266 59.5q129 0 228 -52.5t153 -150.5l-260 -166q-23 47 -67.5 72t-100.5 25q-94 0 -178 -63t-101 -161q-19 -99 43 -164t156 -65q119 0 203 96l200 -164q-152 -175 -385 -200l41 -119q14 -39 2 -101q-17 -87 -92 -148.5 t-164 -61.5q-61 0 -108 35.5t-64 97.5q-6 23 -5 46.5t11 73.5l156 -8l-4 -16q-4 -21 -2 -37q4 -24 24.5 -34.5t47.5 -4.5q28 10 40 34t7 52l-37 193q-119 17 -207 82t-128.5 173.5t-16.5 239.5z" />
<glyph unicode="&#xe8;" horiz-adv-x="1126" d="M156 481q27 148 115 262t211.5 174t260.5 60q207 0 324.5 -141.5t77.5 -362.5q-15 -64 -23 -88h-700q-4 -77 61 -118.5t150 -41.5q139 0 223 90l182 -141q-90 -101 -213.5 -147.5t-257.5 -46.5q-102 0 -187 36.5t-141.5 101t-79.5 159t-3 204.5zM459 1448h282l164 -344 h-205zM461 563h413q4 81 -49.5 122.5t-124.5 41.5t-139.5 -40t-99.5 -124z" />
<glyph unicode="&#xe9;" horiz-adv-x="1126" d="M156 481q27 148 115 262t211.5 174t260.5 60q207 0 324.5 -141.5t77.5 -362.5q-15 -64 -23 -88h-700q-4 -77 61 -118.5t150 -41.5q139 0 223 90l182 -141q-90 -101 -213.5 -147.5t-257.5 -46.5q-102 0 -187 36.5t-141.5 101t-79.5 159t-3 204.5zM461 563h413 q4 81 -49.5 122.5t-124.5 41.5t-139.5 -40t-99.5 -124zM629 1104l286 344h283l-364 -344h-205z" />
<glyph unicode="&#xea;" horiz-adv-x="1126" d="M156 481q27 148 115 262t211.5 174t260.5 60q207 0 324.5 -141.5t77.5 -362.5q-15 -64 -23 -88h-700q-4 -77 61 -118.5t150 -41.5q139 0 223 90l182 -141q-90 -101 -213.5 -147.5t-257.5 -46.5q-102 0 -187 36.5t-141.5 101t-79.5 159t-3 204.5zM397 1112l285 344h283 l163 -344h-204l-129 182l-193 -182h-205zM461 563h413q4 81 -49.5 122.5t-124.5 41.5t-139.5 -40t-99.5 -124z" />
<glyph unicode="&#xeb;" horiz-adv-x="1126" d="M156 481q27 148 115 262t211.5 174t260.5 60q207 0 324.5 -141.5t77.5 -362.5q-15 -64 -23 -88h-700q-4 -77 61 -118.5t150 -41.5q139 0 223 90l182 -141q-90 -101 -213.5 -147.5t-257.5 -46.5q-102 0 -187 36.5t-141.5 101t-79.5 159t-3 204.5zM461 563h413 q4 81 -49.5 122.5t-124.5 41.5t-139.5 -40t-99.5 -124zM469 1307q10 59 61 99t113 40q61 0 96 -40t25 -99q-10 -60 -60 -101t-110 -41q-62 0 -98.5 41t-26.5 101zM831 1307q10 59 61.5 99t113.5 40q61 0 95.5 -40t24.5 -99q-10 -60 -60 -101t-110 -41q-62 0 -98.5 41 t-26.5 101z" />
<glyph unicode="&#xec;" horiz-adv-x="542" d="M131 0l168 956h281l-168 -956h-281zM164 1448h282l164 -344h-204z" />
<glyph unicode="&#xed;" horiz-adv-x="542" d="M131 0l168 956h281l-168 -956h-281zM326 1104l286 344h283l-365 -344h-204z" />
<glyph unicode="&#xee;" horiz-adv-x="542" d="M102 1112l285 344h283l164 -344h-205l-131 182l-191 -182h-205zM131 0l168 956h281l-168 -956h-281z" />
<glyph unicode="&#xef;" horiz-adv-x="542" d="M131 0l168 956h281l-168 -956h-281zM168 1307q10 59 62 99t114 40q60 0 94.5 -39.5t24.5 -99.5t-60 -101t-110 -41q-62 0 -98.5 41t-26.5 101zM530 1307q10 59 62 99t115 40q60 0 94 -39.5t24 -99.5t-60 -101t-110 -41q-62 0 -98.5 41t-26.5 101z" />
<glyph unicode="&#xf0;" horiz-adv-x="1144" d="M158 481q41 219 211.5 353t378.5 122l-93 150l-186 -80l-43 100l178 74l-112 211h272l65 -119l191 80l55 -92l-196 -82l231 -420q71 -121 41 -297q-27 -147 -114.5 -261.5t-210.5 -175t-259 -60.5q-208 0 -328.5 138.5t-80.5 358.5zM438 481q-17 -97 34.5 -158t141.5 -61 q92 0 165.5 61t90.5 158q17 96 -33 154.5t-143 58.5q-90 0 -164.5 -59.5t-91.5 -153.5z" />
<glyph unicode="&#xf1;" horiz-adv-x="1163" d="M131 0l168 956h285l-25 -139q51 72 135 116t170 44q165 0 239.5 -103t39.5 -303l-101 -571h-284l88 510q18 93 -19 141.5t-112 48.5q-178 0 -211 -194l-88 -506h-285zM487 1153q15 72 45 126.5t66.5 83.5t72 42.5t70.5 13.5q29 0 55 -13t41 -29t33.5 -29t34.5 -13 t37.5 20.5t30.5 63.5h153q-12 -58 -34.5 -104.5t-49 -75.5t-57 -48t-58 -26.5t-53.5 -7.5q-34 0 -65.5 21t-56 42t-43.5 21q-15 0 -37 -22t-31 -66h-154z" />
<glyph unicode="&#xf2;" horiz-adv-x="1140" d="M156 481q27 147 114 260t209.5 172.5t257.5 59.5q100 0 185 -35t142.5 -97.5t81 -156t3.5 -203.5q-27 -147 -114.5 -261.5t-210.5 -175t-259 -60.5q-208 0 -328.5 138.5t-80.5 358.5zM414 1448h282l164 -344h-205zM436 481q-17 -97 34.5 -158t141.5 -61q92 0 165.5 61 t90.5 158q17 96 -33 154.5t-143 58.5q-90 0 -164.5 -59.5t-91.5 -153.5z" />
<glyph unicode="&#xf3;" horiz-adv-x="1140" d="M156 481q27 147 114 260t209.5 172.5t257.5 59.5q100 0 185 -35t142.5 -97.5t81 -156t3.5 -203.5q-27 -147 -114.5 -261.5t-210.5 -175t-259 -60.5q-208 0 -328.5 138.5t-80.5 358.5zM436 481q-17 -97 34.5 -158t141.5 -61q92 0 165.5 61t90.5 158q17 96 -33 154.5 t-143 58.5q-90 0 -164.5 -59.5t-91.5 -153.5zM641 1104l287 344h282l-364 -344h-205z" />
<glyph unicode="&#xf4;" horiz-adv-x="1140" d="M156 481q27 147 114 260t209.5 172.5t257.5 59.5q100 0 185 -35t142.5 -97.5t81 -156t3.5 -203.5q-27 -147 -114.5 -261.5t-210.5 -175t-259 -60.5q-208 0 -328.5 138.5t-80.5 358.5zM399 1112l285 344h283l163 -344h-204l-129 182l-193 -182h-205zM436 481 q-17 -97 34.5 -158t141.5 -61q92 0 165.5 61t90.5 158q17 96 -33 154.5t-143 58.5q-90 0 -164.5 -59.5t-91.5 -153.5z" />
<glyph unicode="&#xf5;" horiz-adv-x="1140" d="M156 481q27 147 114 260t209.5 172.5t257.5 59.5q100 0 185 -35t142.5 -97.5t81 -156t3.5 -203.5q-27 -147 -114.5 -261.5t-210.5 -175t-259 -60.5q-208 0 -328.5 138.5t-80.5 358.5zM436 481q-17 -97 34.5 -158t141.5 -61q92 0 165.5 61t90.5 158q17 96 -33 154.5 t-143 58.5q-90 0 -164.5 -59.5t-91.5 -153.5zM477 1153q12 59 34.5 105.5t48 76t56 49t58.5 27.5t55 8q29 0 55 -13t41 -29t33.5 -29t34.5 -13t37.5 20.5t30.5 63.5h153q-15 -72 -45 -126t-66 -82t-70.5 -41t-68.5 -13t-65.5 21t-56.5 42t-44 21q-15 0 -36.5 -22t-30.5 -66 h-154z" />
<glyph unicode="&#xf6;" horiz-adv-x="1140" d="M156 481q27 147 114 260t209.5 172.5t257.5 59.5q100 0 185 -35t142.5 -97.5t81 -156t3.5 -203.5q-27 -147 -114.5 -261.5t-210.5 -175t-259 -60.5q-208 0 -328.5 138.5t-80.5 358.5zM436 481q-17 -97 34.5 -158t141.5 -61q92 0 165.5 61t90.5 158q17 96 -33 154.5 t-143 58.5q-90 0 -164.5 -59.5t-91.5 -153.5zM471 1307q10 59 61 99t113 40q61 0 96 -40t25 -99q-10 -60 -60 -101t-110 -41q-62 0 -98.5 41t-26.5 101zM834 1307q10 59 61 99t113 40q61 0 95.5 -40t24.5 -99q-10 -60 -60 -101t-110 -41q-62 0 -98 41t-26 101z" />
<glyph unicode="&#xf7;" horiz-adv-x="1193" d="M176 399l33 197h981l-33 -197h-981zM461 133q12 67 65.5 110.5t120.5 43.5t107 -44t28 -110q-12 -67 -66.5 -111.5t-121.5 -44.5t-106 44.5t-27 111.5zM592 868q12 65 66.5 109.5t121.5 44.5t106 -44.5t27 -109.5q-12 -67 -68 -111t-124 -44q-67 0 -104 43.5t-25 111.5z " />
<glyph unicode="&#xf8;" horiz-adv-x="1140" d="M72 45l137 119q-87 129 -53 317q27 148 115 262t211 174t259 60q168 0 289 -103l127 111l80 -94l-129 -111q75 -128 43 -299q-27 -147 -114.5 -261.5t-210.5 -175t-259 -60.5q-165 0 -274 86l-141 -121zM438 481q-12 -64 6 -110l349 299q-47 28 -101 28q-89 0 -163 -60.5 t-91 -156.5zM530 279q39 -17 84 -17q92 0 165.5 61t90.5 158q9 49 0 90z" />
<glyph unicode="&#xf9;" horiz-adv-x="1163" d="M186 385l101 571h286l-90 -510q-9 -46 -2 -79t20 -54.5t34.5 -34t41.5 -17.5t41 -5q74 0 131 47t76 148l90 505h285l-168 -956h-284l20 131q-49 -70 -125.5 -110.5t-148.5 -40.5q-168 0 -255.5 104.5t-52.5 300.5zM524 1448h283l164 -344h-205z" />
<glyph unicode="&#xfa;" horiz-adv-x="1163" d="M186 385l101 571h286l-90 -510q-9 -46 -2 -79t20 -54.5t34.5 -34t41.5 -17.5t41 -5q74 0 131 47t76 148l90 505h285l-168 -956h-284l20 131q-49 -70 -125.5 -110.5t-148.5 -40.5q-168 0 -255.5 104.5t-52.5 300.5zM592 1104l287 344h282l-364 -344h-205z" />
<glyph unicode="&#xfb;" horiz-adv-x="1163" d="M186 385l101 571h286l-90 -510q-9 -46 -2 -79t20 -54.5t34.5 -34t41.5 -17.5t41 -5q74 0 131 47t76 148l90 505h285l-168 -956h-284l20 131q-49 -70 -125.5 -110.5t-148.5 -40.5q-168 0 -255.5 104.5t-52.5 300.5zM403 1112l287 344h283l162 -344h-205l-129 182 l-193 -182h-205z" />
<glyph unicode="&#xfc;" horiz-adv-x="1163" d="M186 385l101 571h286l-90 -510q-9 -46 -2 -79t20 -54.5t34.5 -34t41.5 -17.5t41 -5q74 0 131 47t76 148l90 505h285l-168 -956h-284l20 131q-49 -70 -125.5 -110.5t-148.5 -40.5q-168 0 -255.5 104.5t-52.5 300.5zM465 1307q10 59 62 99t114 40q60 0 94.5 -39.5 t24.5 -99.5t-60 -101t-110 -41q-62 0 -98.5 41t-26.5 101zM827 1307q10 59 62 99t115 40q60 0 94 -39.5t24 -99.5t-60 -101t-110 -41q-62 0 -98.5 41t-26.5 101z" />
<glyph unicode="&#xfd;" horiz-adv-x="1044" d="M59 -469l332 567l-217 858h303l113 -542l311 542h303l-844 -1425h-301zM537 1104l286 344h283l-365 -344h-204z" />
<glyph unicode="&#xfe;" horiz-adv-x="1232" d="M45 -469l346 1946h283l-113 -637q46 65 129 101t176 36t170.5 -36t129.5 -99.5t72.5 -159t0.5 -207.5q-27 -147 -112 -261.5t-200 -174t-239 -59.5q-92 0 -162 37t-94 102l-104 -588h-283zM502 481q-18 -102 34.5 -166.5t145.5 -64.5q94 0 168 63.5t94 167.5 q18 102 -34 165t-146 63q-89 0 -167 -63.5t-95 -164.5z" />
<glyph unicode="&#x152;" horiz-adv-x="2234" d="M207 702q36 197 159.5 363.5t305 264t377.5 97.5q257 0 395 -157l24 141h893l-45 -264h-594l-59 -322h520l-45 -260h-520l-55 -301h612l-43 -264h-911l20 137q-201 -157 -448 -157q-146 0 -268.5 57.5t-200.5 154.5t-110.5 230.5t-6.5 279.5zM506 702q-32 -177 66 -301.5 t272 -124.5q176 0 319.5 124t175.5 302t-67 303t-275 125t-317 -125t-174 -303z" />
<glyph unicode="&#x153;" horiz-adv-x="1845" d="M156 481q27 148 114.5 262t210 174t258.5 60q104 0 191 -38.5t143 -107.5q173 146 389 146q207 0 324.5 -141.5t77.5 -362.5q-15 -64 -23 -88h-700q-4 -77 61 -118.5t150 -41.5q139 0 223 90l182 -141q-90 -101 -213.5 -147.5t-257.5 -46.5q-222 0 -340 149 q-80 -69 -178.5 -107t-202.5 -38q-208 0 -328.5 138.5t-80.5 358.5zM436 481q-17 -97 34.5 -158t141.5 -61q92 0 165.5 61t90.5 158t-33.5 157t-142.5 60q-90 0 -164.5 -60.5t-91.5 -156.5zM1180 563h413q4 81 -49.5 122.5t-124.5 41.5t-139.5 -40t-99.5 -124z" />
<glyph unicode="&#x178;" horiz-adv-x="1333" d="M217 1411h356l248 -528l436 528h357l-684 -776l-111 -635h-305l113 639zM647 1761q10 59 62 99.5t114 40.5q60 0 94.5 -40t24.5 -100t-59 -100.5t-109 -40.5q-62 0 -99.5 41t-27.5 100zM1010 1761q10 59 62 99.5t114 40.5q60 0 94.5 -40t24.5 -100t-59 -100.5t-109 -40.5 q-62 0 -99.5 41t-27.5 100z" />
<glyph unicode="&#x2c6;" horiz-adv-x="1161" d="M412 1112l284 344h283l164 -344h-205l-131 182l-191 -182h-204z" />
<glyph unicode="&#x2dc;" horiz-adv-x="919" d="M362 1153q15 72 45 126.5t66.5 83.5t72 42.5t70.5 13.5q30 0 55.5 -13t40 -29t32.5 -29t34 -13t38.5 20.5t31.5 63.5h153q-15 -72 -45.5 -126t-67 -82t-71 -41t-67.5 -13q-34 0 -65.5 21t-56.5 42t-44 21q-15 0 -37 -22t-31 -66h-154z" />
<glyph unicode="&#x2000;" horiz-adv-x="1028" />
<glyph unicode="&#x2001;" horiz-adv-x="2056" />
<glyph unicode="&#x2002;" horiz-adv-x="1028" />
<glyph unicode="&#x2003;" horiz-adv-x="2056" />
<glyph unicode="&#x2004;" horiz-adv-x="685" />
<glyph unicode="&#x2005;" horiz-adv-x="514" />
<glyph unicode="&#x2006;" horiz-adv-x="342" />
<glyph unicode="&#x2007;" horiz-adv-x="342" />
<glyph unicode="&#x2008;" horiz-adv-x="257" />
<glyph unicode="&#x2009;" horiz-adv-x="411" />
<glyph unicode="&#x200a;" horiz-adv-x="114" />
<glyph unicode="&#x2010;" horiz-adv-x="972" d="M193 391l38 225h723l-39 -225h-722z" />
<glyph unicode="&#x2011;" horiz-adv-x="972" d="M193 391l38 225h723l-39 -225h-722z" />
<glyph unicode="&#x2012;" horiz-adv-x="972" d="M193 391l38 225h723l-39 -225h-722z" />
<glyph unicode="&#x2013;" horiz-adv-x="1298" d="M182 354l47 254h1053l-47 -254h-1053z" />
<glyph unicode="&#x2014;" horiz-adv-x="1734" d="M182 354l47 254h1489l-47 -254h-1489z" />
<glyph unicode="&#x2018;" horiz-adv-x="575" d="M244 831q14 74 52.5 154t86 146.5t102 127.5t100 102t81.5 66l98 -63q-46 -50 -68.5 -76t-64 -82t-65.5 -103.5t-49.5 -120t-39.5 -151.5h-233z" />
<glyph unicode="&#x2019;" horiz-adv-x="557" d="M225 895q50 56 69 77.5t63 80.5t66.5 104.5t48.5 118t40 151.5h233q-12 -74 -49.5 -154t-85 -146.5t-102.5 -127.5t-100.5 -102t-81.5 -66z" />
<glyph unicode="&#x201a;" horiz-adv-x="524" d="M-55 -190q6 7 19 22q41 47 62.5 73.5t58.5 80t59.5 99.5t46 114t36.5 143h234q-15 -91 -68 -190t-120.5 -178.5t-126.5 -137t-105 -90.5z" />
<glyph unicode="&#x201c;" horiz-adv-x="925" d="M244 831q14 74 52.5 154t86 146.5t102 127.5t100 102t81.5 66l98 -63q-46 -50 -68.5 -76t-64 -82t-65.5 -103.5t-49.5 -120t-39.5 -151.5h-233zM594 831q14 74 52.5 154t86 146.5t102 127.5t100 102t81.5 66l98 -63q-46 -50 -68.5 -76t-64 -82t-65.5 -103.5t-49.5 -120 t-39.5 -151.5h-233z" />
<glyph unicode="&#x201d;" horiz-adv-x="907" d="M225 895q50 56 69 77.5t63 80.5t66.5 104.5t48.5 118t40 151.5h233q-12 -74 -49.5 -154t-85 -146.5t-102.5 -127.5t-100.5 -102t-81.5 -66zM575 895q50 56 69 77.5t63 80.5t66.5 104.5t48.5 118t40 151.5h234q-15 -91 -67.5 -190.5t-119 -178.5t-127 -137t-106.5 -90z " />
<glyph unicode="&#x201e;" horiz-adv-x="874" d="M-55 -190q6 7 19 22q41 47 62.5 73.5t58.5 80t59.5 99.5t46 114t36.5 143h234q-15 -91 -68 -190t-120.5 -178.5t-126.5 -137t-105 -90.5zM291 -190q3 4 39 45t44 51t39.5 50.5t43 61.5t35.5 64t36 77.5t26.5 83t23.5 99.5h233q-15 -91 -68 -190t-120.5 -178.5 t-126.5 -137t-105 -90.5z" />
<glyph unicode="&#x2022;" horiz-adv-x="999" d="M256 487q24 135 137 225.5t248 90.5q136 0 215 -90.5t55 -225.5q-16 -89 -74 -161.5t-140.5 -113t-170.5 -40.5q-137 0 -215.5 90t-54.5 225z" />
<glyph unicode="&#x2026;" horiz-adv-x="1771" d="M133 152q12 72 73 121t136 49q73 0 115 -48.5t30 -121.5q-12 -74 -72.5 -123t-133.5 -49t-116.5 49t-31.5 123zM733 152q12 72 73 121t136 49q73 0 115 -48.5t30 -121.5q-12 -74 -72.5 -123t-133.5 -49t-116.5 49t-31.5 123zM1333 152q12 72 73 121t136 49 q73 0 115.5 -48.5t30.5 -121.5q-12 -74 -73 -123t-134 -49t-116.5 49t-31.5 123z" />
<glyph unicode="&#x202f;" horiz-adv-x="411" />
<glyph unicode="&#x2039;" horiz-adv-x="671" d="M162 477l358 424h221l-358 -424l209 -424h-221z" />
<glyph unicode="&#x203a;" horiz-adv-x="671" d="M96 53l357 424l-205 424h221l205 -424l-357 -424h-221z" />
<glyph unicode="&#x205f;" horiz-adv-x="514" />
<glyph unicode="&#x20ac;" horiz-adv-x="1697" d="M186 524l23 129h1010l-23 -129h-475q24 -119 111.5 -190.5t216.5 -71.5q108 0 211.5 53.5t177.5 141.5l209 -168q-118 -142 -289 -225.5t-359 -83.5q-253 0 -413 152t-178 392h-222zM229 762l23 129h223q99 236 315 386t465 150q186 0 324.5 -80t212.5 -219l-276 -167 q-42 87 -122 135.5t-188 48.5q-126 0 -236.5 -69.5t-178.5 -184.5h471l-23 -129h-1010z" />
<glyph unicode="&#x2122;" horiz-adv-x="1742" d="M348 1257l27 154h794l146 -463l303 463h147l-41 -745h-172l29 454l-242 -370h-122l-107 370l-135 -454h-170l178 591h-221l-105 -591h-172l105 591h-242z" />
<glyph unicode="&#x25fc;" horiz-adv-x="952" d="M0 0v952h952v-952h-952z" />
</font>
</defs>
</svg>
